<?xml version="1.0" encoding="UTF-8"?>
<svg id="Layer_1" data-name="Layer 1" xmlns="http://www.w3.org/2000/svg" viewBox="0 0 452 172.25">
  <defs>
    <style>
      .cls-1 {
        fill: #fff;
      }
    </style>
  </defs>
  <path class="cls-1" d="M17.25,40.46c-2.64,0-4.6.81-5.87,2.42-1.27,1.61-1.91,3.4-1.91,5.36s.64,3.77,1.91,5.43c1.27,1.57,3.23,2.35,5.87,2.35s4.6-.81,5.87-2.42c1.27-1.61,1.91-3.4,1.91-5.36s-.64-3.74-1.91-5.36c-1.27-1.61-3.23-2.42-5.87-2.42Z"/>
  <polygon class="cls-1" points="-.06 80.67 11.97 80.67 11.97 138.79 24.89 138.79 24.89 68.34 5.81 68.34 -.06 80.67"/>
  <path class="cls-1" d="M82.27,73.18c-4.7-3.23-12.47-4.84-23.34-4.84h-25.39v70.45h12.91v-58.12h16.73c2.93,0,5.43.47,7.49,1.39,2.05.93,3.62,2.01,4.7,3.23,1.08,1.22,1.91,2.79,2.49,4.7.59,1.91.93,3.47,1.03,4.7.1,1.22.15,2.72.15,4.48v39.63h12.91v-39.77c0-6.46-.56-11.67-1.69-15.63-1.13-3.96-3.79-7.36-8-10.2Z"/>
  <path class="cls-1" d="M175.75,126.46h-15.41c-6.56,0-11.06-1.56-13.5-4.7-2.45-3.13-3.67-8.66-3.67-16.58v-36.84h-27.59c0-13.4,7.58-20.11,22.75-20.11v-12.33c-10.47,0-19.08,2.91-25.83,8.73-6.75,5.82-10.13,13.72-10.13,23.7h-4.11l-5.87,12.33h9.98v58.12h13.21v-58.12h14.67v23.92c0,13.79,2.32,22.95,6.97,27.44,4.65,4.5,13.38,6.75,26.2,6.75h12.33c-.88,14.09-10.27,21.13-28.18,21.13h-9.25v12.33h10.57c13.7,0,23.75-3.11,30.16-9.32,6.41-6.21,9.61-15.44,9.61-27.67v-66.92h-12.92v58.12Z"/>
  <path class="cls-1" d="M243.26,73.18c-4.7-3.23-12.47-4.84-23.34-4.84h-25.39v70.45h12.91v-58.12h16.73c2.93,0,5.43.47,7.49,1.39,2.05.93,3.62,2.01,4.7,3.23,1.08,1.22,1.91,2.79,2.49,4.7.59,1.91.93,3.47,1.03,4.7.1,1.22.15,2.72.15,4.48v39.63h12.91v-39.77c0-6.46-.56-11.67-1.69-15.63-1.13-3.96-3.79-7.36-8-10.2Z"/>
  <path class="cls-1" d="M270.27,40.46c-2.64,0-4.6.81-5.87,2.42-1.27,1.61-1.91,3.4-1.91,5.36s.64,3.77,1.91,5.43c1.27,1.57,3.23,2.35,5.87,2.35s4.6-.81,5.87-2.42c1.27-1.61,1.91-3.4,1.91-5.36s-.64-3.74-1.91-5.36c-1.27-1.61-3.23-2.42-5.87-2.42Z"/>
  <polygon class="cls-1" points="252.95 80.67 264.98 80.67 264.98 138.79 277.9 138.79 277.9 68.34 258.82 68.34 252.95 80.67"/>
  <path class="cls-1" d="M326.48,70.4c0,11.84-5.24,20.21-15.7,25.1-5.09-2.54-8.98-6.11-11.67-10.71-2.69-4.6-4.04-9.69-4.04-15.26v-1.17h-12.91v1.17c0,13.8,5.28,24.66,15.85,32.58-10.57,7.83-15.85,18.59-15.85,32.29v4.4h12.91v-4.4c0-5.58,1.34-10.66,4.04-15.26,2.69-4.6,6.58-8.12,11.67-10.57,5.18,2.35,9.1,5.72,11.74,10.13,2.64,4.4,3.96,9.34,3.96,14.82v5.28h12.91v-5.28c0-6.16-1.37-12.01-4.11-17.54-2.74-5.53-6.65-10.15-11.74-13.87,10.57-7.93,15.85-18.49,15.85-31.7v-2.05h-12.91v2.05Z"/>
  <path class="cls-1" d="M376.22,40.46c-2.64,0-4.6.81-5.87,2.42-1.27,1.61-1.91,3.4-1.91,5.36s.64,3.77,1.91,5.43c1.27,1.57,3.23,2.35,5.87,2.35s4.6-.81,5.87-2.42c1.27-1.61,1.91-3.4,1.91-5.36s-.64-3.74-1.91-5.36c-1.27-1.61-3.23-2.42-5.87-2.42Z"/>
  <polygon class="cls-1" points="358.91 80.67 370.94 80.67 370.94 138.79 383.86 138.79 383.86 68.34 364.78 68.34 358.91 80.67"/>
  <path class="cls-1" d="M430.53,80.67v-12.33h-19.81v-13.94l-26.27,26.27h13.06v30.23c0,9.98,2.69,17.12,8.07,21.43,5.38,4.31,13.7,6.46,24.95,6.46v-12.33c-2.84,0-5.21-.15-7.12-.44-1.91-.29-3.94-.9-6.09-1.83-2.15-.93-3.79-2.52-4.92-4.77-1.13-2.25-1.69-5.09-1.69-8.51v-30.23h19.81Z"/>
  <g>
    <g>
      <path class="cls-1" d="M201.56,156.22c-.32.56-.77,1.06-1.25,1.36-.6.39-1.39.56-2.18.56-.99,0-1.8-.25-2.5-.95-.7-.7-1.09-1.73-1.09-2.83s.4-2.25,1.18-3.05c.62-.62,1.43-1,2.48-1,1.18,0,1.94.51,2.38.97.95.99,1.04,2.36,1.04,3.13v.21h-5.32c.04.53.26,1.13.63,1.5.4.4.9.48,1.32.48.48,0,.83-.11,1.18-.37.3-.23.53-.53.69-.81l1.44.81ZM199.85,153.21c-.07-.4-.26-.76-.53-1-.23-.21-.6-.42-1.16-.42-.6,0-.99.25-1.21.48-.25.23-.44.58-.53.95h3.43Z"/>
      <path class="cls-1" d="M203.42,150.5h1.73v.69c.58-.7,1.27-.88,1.83-.88.77,0,1.5.37,1.92,1.09.62-.88,1.55-1.09,2.2-1.09.9,0,1.69.42,2.11,1.16.14.25.39.79.39,1.87v4.58h-1.73v-4.08c0-.83-.09-1.16-.16-1.32-.11-.28-.37-.65-.99-.65-.42,0-.79.23-1.02.55-.3.42-.33,1.06-.33,1.69v3.82h-1.73v-4.08c0-.83-.09-1.16-.16-1.32-.11-.28-.37-.65-.99-.65-.42,0-.79.23-1.02.55-.3.42-.33,1.06-.33,1.69v3.82h-1.73v-7.41Z"/>
      <path class="cls-1" d="M217.51,161.94h-1.73v-11.44h1.73v.81c.63-.76,1.46-1,2.2-1,1.95,0,3.61,1.5,3.61,3.86,0,2.5-1.83,3.98-3.59,3.98-.4,0-1.44-.14-2.22-1.09v4.89ZM217.4,154.25c0,1.55,1,2.34,2.09,2.34,1.25,0,2.06-1.07,2.06-2.36s-.81-2.38-2.06-2.38c-1.09,0-2.09.77-2.09,2.39Z"/>
      <path class="cls-1" d="M232.65,154.21c0,2.27-1.73,3.93-3.96,3.93s-3.96-1.65-3.96-3.93,1.73-3.91,3.96-3.91,3.96,1.62,3.96,3.91ZM230.89,154.23c0-1.69-1.11-2.38-2.2-2.38s-2.2.69-2.2,2.38c0,1.43.85,2.36,2.2,2.36s2.2-.93,2.2-2.36Z"/>
      <path class="cls-1" d="M235.4,150.5l1.92,4.24,2.08-4.88,2.08,4.88,1.92-4.24h1.94l-3.86,7.94-2.08-4.74-2.08,4.74-3.86-7.94h1.94Z"/>
      <path class="cls-1" d="M252.98,156.22c-.32.56-.77,1.06-1.25,1.36-.6.39-1.39.56-2.18.56-.99,0-1.8-.25-2.5-.95-.7-.7-1.09-1.73-1.09-2.83s.4-2.25,1.18-3.05c.62-.62,1.43-1,2.48-1,1.18,0,1.94.51,2.38.97.95.99,1.04,2.36,1.04,3.13v.21h-5.32c.04.53.26,1.13.63,1.5.4.4.9.48,1.32.48.48,0,.83-.11,1.18-.37.3-.23.53-.53.69-.81l1.44.81ZM251.27,153.21c-.07-.4-.26-.76-.53-1-.23-.21-.6-.42-1.16-.42-.6,0-.99.25-1.21.48-.25.23-.44.58-.53.95h3.43Z"/>
      <path class="cls-1" d="M254.83,150.5h1.73v.67c.19-.23.48-.48.72-.62.33-.19.67-.25,1.06-.25.42,0,.88.07,1.36.35l-.7,1.57c-.39-.25-.7-.26-.88-.26-.37,0-.74.05-1.07.4-.48.51-.48,1.21-.48,1.71v3.84h-1.73v-7.41Z"/>
      <path class="cls-1" d="M260.68,150.5h1.73v.69c.58-.7,1.27-.88,1.83-.88.77,0,1.5.37,1.92,1.09.62-.88,1.55-1.09,2.2-1.09.9,0,1.69.42,2.11,1.16.14.25.39.79.39,1.87v4.58h-1.73v-4.08c0-.83-.09-1.16-.16-1.32-.11-.28-.37-.65-.99-.65-.42,0-.79.23-1.02.55-.3.42-.33,1.06-.33,1.69v3.82h-1.73v-4.08c0-.83-.09-1.16-.16-1.32-.11-.28-.37-.65-.99-.65-.42,0-.79.23-1.02.55-.3.42-.33,1.06-.33,1.69v3.82h-1.73v-7.41Z"/>
      <path class="cls-1" d="M279.68,156.22c-.32.56-.77,1.06-1.25,1.36-.6.39-1.39.56-2.18.56-.99,0-1.8-.25-2.5-.95-.7-.7-1.09-1.73-1.09-2.83s.4-2.25,1.18-3.05c.62-.62,1.43-1,2.48-1,1.18,0,1.94.51,2.38.97.95.99,1.04,2.36,1.04,3.13v.21h-5.32c.04.53.26,1.13.63,1.5.4.4.9.48,1.32.48.48,0,.83-.11,1.18-.37.3-.23.53-.53.69-.81l1.44.81ZM277.97,153.21c-.07-.4-.26-.76-.53-1-.23-.21-.6-.42-1.16-.42-.6,0-.99.25-1.21.48-.25.23-.44.58-.53.95h3.43Z"/>
      <path class="cls-1" d="M281.51,150.5h1.73v.69c.74-.83,1.58-.88,2.01-.88,1.37,0,1.95.69,2.18,1,.28.4.46.92.46,2.06v4.54h-1.73v-4.12c0-1.88-.7-1.94-1.36-1.94-.77,0-1.57.11-1.57,2.5v3.56h-1.73v-7.41Z"/>
      <path class="cls-1" d="M291.85,152.08v5.83h-1.73v-5.83h-.72v-1.58h.72v-2.71h1.73v2.71h1.32v1.58h-1.32Z"/>
      <path class="cls-1" d="M299.39,150.5l1.9,4.23,1.9-4.23h1.94l-3.84,7.94-3.84-7.94h1.94Z"/>
      <path class="cls-1" d="M307.19,146.32c.63,0,1.11.48,1.11,1.11s-.48,1.11-1.11,1.11-1.11-.48-1.11-1.11.48-1.11,1.11-1.11ZM308.06,150.5v7.41h-1.73v-7.41h1.73Z"/>
      <path class="cls-1" d="M315.66,150.5h1.73v7.41h-1.73v-.77c-.76.88-1.69,1-2.22,1-2.29,0-3.59-1.9-3.59-3.94,0-2.41,1.65-3.89,3.61-3.89.55,0,1.5.14,2.2,1.06v-.86ZM311.62,154.23c0,1.29.81,2.36,2.06,2.36,1.09,0,2.09-.79,2.09-2.34s-1-2.39-2.09-2.39c-1.25,0-2.06,1.06-2.06,2.38Z"/>
      <path class="cls-1" d="M325.46,152.08v5.83h-1.73v-5.83h-.72v-1.58h.72v-2.71h1.73v2.71h1.32v1.58h-1.32Z"/>
      <path class="cls-1" d="M334.58,156.22c-.32.56-.77,1.06-1.25,1.36-.6.39-1.39.56-2.18.56-.99,0-1.8-.25-2.5-.95-.7-.7-1.09-1.73-1.09-2.83s.4-2.25,1.18-3.05c.62-.62,1.43-1,2.48-1,1.18,0,1.94.51,2.38.97.95.99,1.04,2.36,1.04,3.13v.21h-5.32c.04.53.26,1.13.63,1.5.4.4.9.48,1.32.48.48,0,.83-.11,1.18-.37.3-.23.53-.53.69-.81l1.44.81ZM332.87,153.21c-.07-.4-.26-.76-.53-1-.23-.21-.6-.42-1.16-.42-.6,0-.99.25-1.21.48-.25.23-.44.58-.53.95h3.43Z"/>
      <path class="cls-1" d="M342.17,152.77c-.79-.77-1.57-.92-2.09-.92-.81,0-1.32.33-1.64.65s-.63.88-.63,1.71.33,1.44.67,1.78c.39.37.93.6,1.57.6.7,0,1.53-.28,2.13-.95v1.92c-.42.26-1.11.58-2.25.58-1.23,0-2.11-.35-2.82-1.09-.53-.55-1.06-1.43-1.06-2.78s.58-2.32,1.13-2.87c.58-.58,1.51-1.09,2.98-1.09.56,0,1.23.09,2.02.53v1.94Z"/>
      <path class="cls-1" d="M343.83,145.07h1.73v6.06c.74-.76,1.55-.83,1.99-.83,1.36,0,1.97.7,2.18,1,.46.67.48,1.53.48,2.06v4.54h-1.73v-4.38c0-.44,0-.92-.33-1.29-.19-.21-.53-.39-.97-.39-.58,0-1.04.28-1.27.62-.25.35-.35.92-.35,1.87v3.57h-1.73v-12.83Z"/>
      <path class="cls-1" d="M352.37,150.5h1.73v.69c.74-.83,1.58-.88,2.01-.88,1.37,0,1.95.69,2.18,1,.28.4.46.92.46,2.06v4.54h-1.73v-4.12c0-1.88-.7-1.94-1.36-1.94-.77,0-1.57.11-1.57,2.5v3.56h-1.73v-7.41Z"/>
      <path class="cls-1" d="M368.47,154.21c0,2.27-1.73,3.93-3.96,3.93s-3.96-1.65-3.96-3.93,1.73-3.91,3.96-3.91,3.96,1.62,3.96,3.91ZM366.71,154.23c0-1.69-1.11-2.38-2.2-2.38s-2.2.69-2.2,2.38c0,1.43.85,2.36,2.2,2.36s2.2-.93,2.2-2.36Z"/>
      <path class="cls-1" d="M371.99,145.07v12.83h-1.73v-12.83h1.73Z"/>
      <path class="cls-1" d="M381.71,154.21c0,2.27-1.73,3.93-3.96,3.93s-3.96-1.65-3.96-3.93,1.73-3.91,3.96-3.91,3.96,1.62,3.96,3.91ZM379.95,154.23c0-1.69-1.11-2.38-2.2-2.38s-2.2.69-2.2,2.38c0,1.43.85,2.36,2.2,2.36s2.2-.93,2.2-2.36Z"/>
      <path class="cls-1" d="M388.94,150.5h1.73v6.81c0,1.74-.19,2.99-1.21,3.86-.48.39-1.25.79-2.46.79-.86,0-1.73-.21-2.43-.92-.55-.55-.97-1.41-1.09-2.31h1.67c.07.4.28.88.55,1.16.21.23.63.51,1.34.51s1.14-.28,1.36-.49c.56-.55.56-1.32.56-1.87v-.97c-.79,1-1.76,1.06-2.25,1.06-.95,0-1.74-.26-2.45-1-.67-.7-1.11-1.71-1.11-2.94,0-1.36.51-2.29,1.09-2.87.74-.76,1.62-1.02,2.52-1.02.74,0,1.57.25,2.2,1v-.81ZM385.65,152.34c-.44.4-.76,1.09-.76,1.88,0,.74.28,1.46.74,1.87.32.28.79.49,1.32.49s1.02-.16,1.44-.6c.51-.55.65-1.18.65-1.74,0-.83-.26-1.44-.7-1.87-.42-.42-.9-.53-1.39-.53s-.92.12-1.3.49Z"/>
      <path class="cls-1" d="M395.03,156.75l-3.17-6.25h2.08l2.11,4.33,2.15-4.33h1.94l-5.9,11.44h-1.94l2.73-5.19Z"/>
    </g>
    <path class="cls-1" d="M430.31,154.66l-5.01-4.94c-.14-.14-.32-.21-.52-.21h-2.85c-.32,0-.48.39-.25.61l5.11,5.05-5.12,5.07c-.23.22-.07.61.25.61h.92s1.13,0,1.13,0h.8c.19,0,.38-.08.52-.21l5.01-4.96c.28-.28.28-.73,0-1.01"/>
    <path class="cls-1" d="M423.04,154.66l-5.01-4.94c-.14-.14-.32-.21-.52-.21h-2.45c-.32,0-.48.39-.25.61l5.11,5.05-5.12,5.07c-.23.22-.07.61.25.61h.92s.52,0,.52,0h1.01c.19,0,.38-.08.52-.21l5.01-4.96c.28-.28.28-.73,0-1.01"/>
    <path class="cls-1" d="M415.47,154.66l-5.01-4.94c-.14-.14-.32-.21-.52-.21h-1.43c-.32,0-.48.39-.25.61l5.11,5.05-5.12,5.07c-.23.22-.07.61.25.61h.92s-.49,0-.49,0h1.01c.19,0,.38-.08.52-.21l5.01-4.96c.28-.28.28-.73,0-1.01"/>
  </g>
  <path class="cls-1" d="M423.02,28.81c-4.09-35.75-55.38-39.46-63.1-4.19-15.26-4.88-29.97,2.47-33.44,18.38l4.92-.09c3.36-14.59,19.95-19.19,31.85-10.78,1.21-34.99,50.51-37.34,55.19-2.5-6.12.41-12.4,3.22-15.88,8.35,3.21-.47,5.88-2.31,9.02-3.09,22.25-5.47,39.48,13.42,35.04,33.3-.55,1.8-1.5,4.25-3.2,6.85-1.67,2.56-3.49,4.4-4.9,5.62h6.73c2.99-3.57,5.2-7.81,6.35-12.47h0c.07-.48.14-.98.19-1.45,2.33-19.82-10.21-33.63-28.77-37.94Z"/>
</svg>